<?xml version="1.0" encoding="UTF-8" standalone="no"?>
<svg
   version="1.1"
   viewBox="0 0 750 750"
   id="svg20"
   sodipodi:docname="logo.svg"
   width="750"
   height="750"
   inkscape:version="1.4.3 (0d15f75, 2025-12-25)"
   xmlns:inkscape="http://www.inkscape.org/namespaces/inkscape"
   xmlns:sodipodi="http://sodipodi.sourceforge.net/DTD/sodipodi-0.dtd"
   xmlns="http://www.w3.org/2000/svg"
   xmlns:svg="http://www.w3.org/2000/svg">
  <defs
     id="defs20" />
  <sodipodi:namedview
     id="namedview20"
     pagecolor="#ffffff"
     bordercolor="#000000"
     borderopacity="0.25"
     inkscape:showpageshadow="2"
     inkscape:pageopacity="0.0"
     inkscape:pagecheckerboard="0"
     inkscape:deskcolor="#d1d1d1"
     inkscape:zoom="0.68477763"
     inkscape:cx="424.95547"
     inkscape:cy="398.66956"
     inkscape:window-width="1689"
     inkscape:window-height="973"
     inkscape:window-x="0"
     inkscape:window-y="34"
     inkscape:window-maximized="0"
     inkscape:current-layer="svg20" />
  <clipPath
     id="clipping-path-0">
    <path
       d="M 0,0 H 1254 V 1254 H 0 Z"
       id="path1" />
  </clipPath>
  <g
     id="g20"
     transform="matrix(1.1154471,0,0,0.99809566,-38.596627,4.2839711)">
    <path
       fill="#121e2c"
       d="m 647.63293,557.62799 h -261.45 a 0.72,0.72 0 0 0 -0.72,0.72 v 65.13 a 1.04,1.03 88.399974 0 0 1.09,1.04001 q 7.61,-0.37 23.34,-0.0102 10.93,0.24999 17.84,8.85001 c 4.27,5.29999 5.64,9.59998 5.43,16.49998 q -0.03,0.84001 -0.11,21.01001 a 0.98000001,0.97000001 0.30000014 0 0 0.98,0.98 q 144.91,-0.0499 222.35,0.04 c 8.13,0.0102 14.17,7.04001 13.97,15.08 -0.2,7.85001 -7.64,13.48999 -15.22,13.47999 q -204.31,-0.06 -221.43,-0.0799 a 0.52000001,0.53000001 1.0999975 0 0 -0.52,0.50998 q -0.38,11.65001 -0.14,18.90001 0.28,9.02 -1.16,13.06 c -2.49,6.99 -8.98,12.9 -16.32,14.76999 q -2.68,0.68001 -9.55,0.69001 -69.14,0.04 -75.78,-0.04 -2.47,-0.0301 -5.29,-1.22 c -8.7,-3.67999 -16.54,-11.48 -16.13,-21.48 q 0.45,-10.97999 0.24,-24.51 a 0.9,0.88999999 88.400001 0 0 -0.92,-0.88 q -10.17,0.3 -18.5,0.3 -165.19999,-0.04 -203.249992,-0.0799 c -12.08,-0.0102 -18.48,-13.75 -11.33,-22.81999 q 2.58,-3.27001 6.39,-4.84001 2.04,-0.85 7.97,-0.85 136.279992,-0.09 219.029992,0.03 a 0.53,0.53 0 0 0 0.54,-0.52999 q -0.03,-14.4 0.2,-25.22 c 0.13,-6.02001 3.52,-11.1 7.75,-15.16999 q 6.99,-6.72001 17.73,-6.53002 11.1,0.19001 21.66,-0.21 a 0.7,0.7 0 0 0 0.68,-0.69999 V 558.298 a 0.66,0.66 0 0 0 -0.66,-0.66001 H 94.532938 a 0.46,0.46 0 0 0 -0.46,0.46 l -0.04,27.25999 a 0.76000001,1.21 39.2 0 1 -0.03,0.25001 q -1.88,8.77001 -9.01,12.1 -3.06,1.43 -9.86,1.37 -19.58,-0.18 -24.73,-0.35001 c -7.22,-0.24999 -11.81,-6.66999 -13.15,-13.13999 a 0.77,0.94 32.1 0 1 -0.03,-0.23001 q -0.05,-209.59998 -0.02,-561.71998 c 0,-3.96 -0.48,-12.29 1.61,-16.5200001 q 2.75,-5.5500011 7.86,-8.09000111 2.58,-1.27999949 7.58,-1.28999949 11.95,-0.02 24.91,0.05 c 6.78,0.03 12.23,4.8499995 14.2,11.1500005 q 0.74,2.3699992 0.74,7.5600012 0.11,146.149989 -0.01,233.319989 a 0.3,0.3 0 0 0 0.3,0.3 H 339.87293 a 0.62,0.62 0 0 0 0.62,-0.62 v -19.38 a 0.58,0.58 0 0 0 -0.61,-0.57999 c -11.41,0.50999 -25.91,-0.0102 -36.05,0.06 q -28.05,0.2 -170.69999,0.03 -14.32,-0.0102 -17.98,-13.41 a 2.9199999,2.83 38.300015 0 1 -0.1,-0.75 l 0.06,-126.779987 a 1.08,1.2100001 48.299999 0 1 0.03,-0.26 q 2.23,-9.780001 10.45,-13.310002 3.19,-1.37 11.28,-1.37 140.96999,0 468.09999,0.02 9.37,0 12.29,1.27 7.26,3.17 9.52,10.8 0.69,2.339999 0.65,14.709989 -0.12,34.07 0,83.17001 a 0.5,0.5 0 0 0 0.5,0.49999 h 19.88 a 0.38,0.38 0 0 0 0.38,-0.37 q 0.19,-6.97 0.18,-17.21001 -0.04,-28.78999 -0.01,-147.24998 0,-4.889999 0.27,-7.929999 c 0.49,-5.4300013 5.18,-11.25000227 10.69,-13.1100017 q 2.16,-0.7300001 7.2,-0.66 7.05,0.080001 23.24,-0.010001 c 6.91,-0.03 11.93,3.1299995 14.73,9.1500004 q 1.28,2.7700001 1.28,10.8599993 0.01,377.780002 0.01,562.129982 0,7.41001 -1.3,10.04002 -2.45,4.97999 -7.41,7.65999 -2.65,1.42999 -9.13,1.46001 -18.83,0.09 -25.26,-0.17001 c -7.6,-0.3 -11.56,-5.03 -13.82,-12.02999 q -0.79,-2.45 -0.6,-8.83001 0.4,-12.81999 0.03,-19.7 a 0.66,0.66 0 0 0 -0.66,-0.62 z M 300.79253,131.2322 a 7.78,7.78 0 0 0 -7.7935,-7.7664 l -59.8199,0.1044 a 7.78,7.78 0 0 0 -7.7665,7.79359 l 7e-4,0.36 a 7.78,7.78 0 0 0 7.7935,7.7664 l 59.8199,-0.1044 a 7.78,7.78 0 0 0 7.7665,-7.7936 z m -103.7053,10.94259 a 26.59,26.89 70.800029 0 0 -34.1389,-16.26779 26.59,26.89 70.800029 0 0 -16.6497,33.95419 26.59,26.89 70.800029 0 0 34.1389,16.26781 26.59,26.89 70.800029 0 0 16.6497,-33.95421 z m 96.3457,27.9932 a 7.66,7.66 0 0 0 -7.66,-7.65999 h -52.74 a 7.66,7.66 0 0 0 -7.66,7.65999 v 0.40001 a 7.66,7.66 0 0 0 7.66,7.65999 h 52.74 a 7.66,7.66 0 0 0 7.66,-7.65999 z m 363.69,46.62 a 16.6,16.6 0 0 0 -16.6,-16.6 h -267.42 a 16.6,16.6 0 0 0 -16.6,16.6 v 230.86 a 16.6,16.6 0 0 0 16.6,16.6 h 267.42 a 16.6,16.6 0 0 0 16.6,-16.6 z m -317.26,108.01001 a 0.82,0.83 89.299999 0 0 0.81,-0.82001 v -19.65 a 0.42,0.42000001 0 0 0 -0.42,-0.42 H 94.692938 a 0.55,0.56000001 0 0 0 -0.55,0.56 V 501.358 a 0.35,0.35000001 0 0 0 0.35,0.34999 H 647.37293 a 1.03,1.0299999 0 0 0 1.03,-1.03 v -19.87 a 0.54,0.54 0 0 0 -0.57,-0.54 q -3.81,0.19 -9.95,0.19 -441.21,-0.0499 -504.02999,0.0201 -5.8,0 -8.62,-1.25999 -8.1,-3.61 -10.04,-12.34001 a 5.15,4.62 41.900002 0 1 -0.13,-1.19999 q 0.05,-5.01 0.04,-120.13 0,-7.81 1.31,-10.59001 2.83,-5.98999 8.84,-8.84 2.67,-1.25999 10.48,-1.24999 55.36999,0.11999 168.21999,0.0201 c 8.53,0 23.81,0.23 35.91,-0.09 z m -38.91,57.35 a 7.76,7.76 0 0 0 -7.76,-7.76001 h -60.02 a 7.76,7.76 0 0 0 -7.76,7.76001 v 0.35999 a 7.76,7.76 0 0 0 7.76,7.76 h 60.02 a 7.76,7.76 0 0 0 7.76,-7.76 z m -155.7505,16.15879 a 26.76,26.62 7.0000195 0 0 23.3163,29.6828 26.76,26.62 7.0000195 0 0 29.8047,-23.1604 26.76,26.62 7.0000195 0 0 -23.3163,-29.6828 26.76,26.62 7.0000195 0 0 -29.8047,23.1604 z m 148.3101,22.6418 a 7.8,7.8000001 0 0 0 -7.8136,-7.78641 l -52.4999,0.0915 a 7.8,7.8000001 0 0 0 -7.7864,7.81361 l 7e-4,0.41999 a 7.8,7.8000001 0 0 0 7.8136,7.78639 l 52.4999,-0.0915 a 7.8,7.8000001 0 0 0 7.7864,-7.8136 z m 114.492,235.6239 a 7.33,7.33 0 0 0 -7.3172,-7.3428 l -59.1799,-0.10329 a 7.33,7.33 0 0 0 -7.3428,7.31719 l -0.1033,59.19991 a 7.33,7.33 0 0 0 7.3172,7.34279 l 59.1799,0.10331 a 7.33,7.33 0 0 0 7.3428,-7.31721 z"
       id="path15"
       style="fill:#000000;stroke-width:0.999998" />
    <rect
       fill="#ffffff"
       x="225.18306"
       y="123.97701"
       transform="rotate(-0.1)"
       width="75.379997"
       height="15.92"
       rx="7.7800002"
       id="rect15" />
    <ellipse
       fill="#1e75e2"
       cx="112.47797"
       cy="199.08192"
       transform="rotate(-19.2)"
       rx="26.889999"
       ry="26.59"
       id="ellipse15"
       style="fill:#999999" />
    <rect
       fill="#ffffff"
       x="225.37294"
       y="162.508"
       width="68.059998"
       height="15.72"
       rx="7.6599998"
       id="rect16" />
    <path
       fill="#ffffff"
       d="m 657.12293,447.64799 a 16.6,16.6 0 0 1 -16.6,16.6 h -267.42 a 16.6,16.6 0 0 1 -16.6,-16.6 v -230.86 a 16.6,16.6 0 0 1 16.6,-16.6 h 267.42 a 16.6,16.6 0 0 1 16.6,16.6 z m -48.28,-175.28 a 31.36,31.36 0 0 0 -31.36,-31.36 31.36,31.36 0 0 0 -31.36,31.36 31.36,31.36 0 0 0 31.36,31.36 31.36,31.36 0 0 0 31.36,-31.36 z m -71.47,100.2 q -0.79,0.15 -1.37,-0.41 c -21.44,-21.13 -42.42,-42.44 -63.73,-63.43 -3.7,-3.64 -5.73,-5.36 -10.42,-4.5 q -2.39,0.43 -7.07,5.11 -33.16,33.15 -74.97,74.23 -1.98,1.94 -1.99,5.07 -0.03,19.91 0.11,41.99 a 4.93,4.69 39.5 0 0 0.14,1.15 q 1.38,5.66 6.23,8.62 3.03,1.85 10.22,1.9 10.1,0.08 10.61,0.08 165.65,-0.05 216,0.01 7.76,0.01 11.98,-5.82 2.13,-2.94 2.15,-5.78 0.12,-17.24 0,-38.09 -0.02,-2.3 -1.22,-3.48 -19.61,-19.26 -49.42,-48.57 -4.29,-4.22 -8.76,-3.24 -2.87,0.62 -7.35,5 -29.97,29.26 -30.41,29.7 -0.42,0.4 -0.73,0.46 z"
       id="path16" />
    <circle
       fill="#1e75e2"
       cx="577.48291"
       cy="272.36795"
       r="31.360001"
       id="circle16"
       style="fill:#999999" />
    <path
       fill="#12d916"
       d="m 339.86293,324.79799 c -12.1,0.32 -27.38,0.09 -35.91,0.09 q -112.85,0.1 -168.21999,-0.02 -7.81,-0.01 -10.48,1.25 -6.01,2.85 -8.84,8.84 -1.31,2.78 -1.31,10.59 0.01,115.12 -0.04,120.13 a 5.15,4.62 41.9 0 0 0.13,1.2 q 1.94,8.73 10.04,12.34 2.82,1.26 8.62,1.26 62.81999,-0.07 504.02999,-0.02 6.14,0 9.95,-0.19 a 0.54,0.54 0 0 1 0.57,0.54 v 19.87 a 1.03,1.03 0 0 1 -1.03,1.03 H 94.492938 a 0.35,0.35 0 0 1 -0.35,-0.35 v -196.89 a 0.55,0.56 0 0 1 0.55,-0.56 H 340.25293 a 0.42,0.42 0 0 1 0.42,0.42 v 19.65 a 0.82,0.83 89.3 0 1 -0.81,0.82 z"
       id="path17"
       style="fill:none" />
    <path
       fill="#1e75e2"
       d="m 537.37293,372.56799 q 0.31,-0.06 0.73,-0.46 0.44,-0.44 30.41,-29.7 4.48,-4.38 7.35,-5 4.47,-0.98 8.76,3.24 29.81,29.31 49.42,48.57 1.2,1.18 1.22,3.48 0.12,20.85 0,38.09 -0.02,2.84 -2.15,5.78 -4.22,5.83 -11.98,5.82 -50.35,-0.06 -216,-0.01 -0.51,0 -10.61,-0.08 -7.19,-0.05 -10.22,-1.9 -4.85,-2.96 -6.23,-8.62 a 4.93,4.93 0 0 1 -0.14,-1.15 q -0.14,-22.08 -0.11,-41.99 0.01,-3.13 1.99,-5.07 41.81,-41.08 74.97,-74.23 4.68,-4.68 7.07,-5.11 c 4.69,-0.86 6.72,0.86 10.42,4.5 21.31,20.99 42.29,42.3 63.73,63.43 q 0.58,0.56 1.37,0.41 z"
       id="path18"
       style="fill:#999999" />
    <rect
       fill="#ffffff"
       x="225.41295"
       y="374.38797"
       width="75.540001"
       height="15.88"
       rx="7.7600002"
       id="rect18" />
    <ellipse
       fill="#1e75e2"
       cx="-219.42146"
       cy="-377.64215"
       transform="rotate(-173)"
       rx="26.76"
       ry="26.620001"
       id="ellipse18"
       style="fill:#999999" />
    <rect
       fill="#ffffff"
       x="224.67738"
       y="413.66022"
       transform="rotate(-0.1)"
       width="68.099998"
       height="16.02"
       rx="7.8000002"
       id="rect19" />
    <rect
       fill="#1e75e2"
       x="335.30988"
       y="648.52936"
       transform="rotate(0.1)"
       width="73.839996"
       height="73.860001"
       rx="7.3299999"
       id="rect20"
       style="fill:#999999" />
  </g>
</svg>
